<svg xmlns="http://www.w3.org/2000/svg" width="22.381" height="27.093" viewBox="0 0 22.381 27.093">
  <g id="Group_15" data-name="Group 15" transform="translate(-530.251 -182)">
    <path id="icons8-task_completed" d="M10.9,1.178a.884.884,0,0,0-.883.883V5.6a.884.884,0,0,0,.883.883h7.657a.884.884,0,0,0,.883-.883V2.061a.884.884,0,0,0-.883-.883ZM5.3,2.356A1.769,1.769,0,0,0,3.534,4.123V26.5A1.769,1.769,0,0,0,5.3,28.271H24.148A1.767,1.767,0,0,0,25.915,26.5V4.123a1.769,1.769,0,0,0-1.767-1.767H20.614V5.3H22.97V25.326H6.479V5.3H8.835V2.356Zm14.721,7.65a.589.589,0,0,0-.482.262l-5.675,8.274L9.822,14.83a.589.589,0,1,0-.8.867l5.043,4.631,6.442-9.394a.589.589,0,0,0-.489-.929Z" transform="translate(526.717 180.822)" fill="#fe640f"/>
  </g>
</svg>
