<svg xmlns="http://www.w3.org/2000/svg" width="24.384" height="25.4" viewBox="0 0 24.384 25.4">
  <g id="Group_14" data-name="Group 14" transform="translate(-529.25 -182.847)">
    <path id="icons8-event_declined" d="M6.1,0A1.023,1.023,0,0,0,5.08,1.016V2.032H2.032A.982.982,0,0,0,1.016,3.048V6.6H24.384V3.048a.982.982,0,0,0-1.016-1.016H20.32V1.016A1.023,1.023,0,0,0,19.3,0H18.288a1.023,1.023,0,0,0-1.016,1.016V2.032H8.128V1.016A1.023,1.023,0,0,0,7.112,0Zm0,1.016H7.112V4.064H6.1Zm12.192,0H19.3V4.064H18.288ZM1.016,7.62V23.368a1.015,1.015,0,0,0,1.016,1.016H17.286a5.069,5.069,0,0,0,7.1-7.1V7.62Zm11.43,2.54,1.278,3.3,3.548.19-2.756,2.23L15.081,18l.347,1.3-2.982-1.923L9.463,19.3l.915-3.421L7.62,13.652l3.548-.19Zm7.874,6.1a4.056,4.056,0,0,1,3.207,6.55l-5.693-5.693A4.042,4.042,0,0,1,20.32,16.256Zm-3.207,1.578,5.693,5.693a4.056,4.056,0,0,1-5.693-5.693Z" transform="translate(528.234 182.847)" fill="#707070"/>
  </g>
</svg>
