<svg xmlns="http://www.w3.org/2000/svg" width="15.795" height="12.786" viewBox="0 0 15.795 12.786">
  <g id="icons8-truck" transform="translate(-3 -7)">
    <path id="Path_52" data-name="Path 52" d="M34.265,22.273H29V14h3.971a.752.752,0,0,1,.713.514l1.333,4v3.009a.752.752,0,0,1-.752.752" transform="translate(-16.222 -4.368)" fill="#797979"/>
    <path id="Path_53" data-name="Path 53" d="M12.778,17.906H3.752A.752.752,0,0,1,3,17.154v-9.4A.752.752,0,0,1,3.752,7h8.273a.752.752,0,0,1,.752.752Z" fill="#fff"/>
    <path id="Path_54" data-name="Path 54" d="M35.761,32.88A1.88,1.88,0,1,1,33.88,31a1.88,1.88,0,0,1,1.88,1.88" transform="translate(-18.094 -14.974)"/>
    <path id="Path_55" data-name="Path 55" d="M11.761,32.88A1.88,1.88,0,1,1,9.88,31a1.881,1.881,0,0,1,1.88,1.88" transform="translate(-3.12 -14.974)"/>
    <path id="Path_56" data-name="Path 56" d="M36.5,34.752A.752.752,0,1,1,35.752,34a.752.752,0,0,1,.752.752" transform="translate(-19.966 -16.846)" fill="#999"/>
    <path id="Path_57" data-name="Path 57" d="M12.5,34.752A.752.752,0,1,1,11.752,34a.752.752,0,0,1,.752.752" transform="translate(-4.991 -16.846)" fill="#999"/>
    <path id="Path_58" data-name="Path 58" d="M36.009,19.385H33.376A.376.376,0,0,1,33,19.009V16.376A.376.376,0,0,1,33.376,16h1.88a.375.375,0,0,1,.357.257l.752,2.256a.387.387,0,0,1,.019.119v.376A.376.376,0,0,1,36.009,19.385Z" transform="translate(-18.718 -5.615)" fill="#fe640f"/>
  </g>
</svg>
