<svg id="rejected_tag" xmlns="http://www.w3.org/2000/svg" width="172" height="44" viewBox="0 0 172 44">
  <g id="Path_78" data-name="Path 78" fill="#ffe5e5">
    <path d="M 161 43.5 L 11 43.5 C 5.210282802581787 43.5 0.5 38.78971862792969 0.5 33 L 0.5 11 C 0.5 5.210282802581787 5.210282802581787 0.5 11 0.5 L 161 0.5 C 166.7897186279297 0.5 171.5 5.210282802581787 171.5 11 L 171.5 33 C 171.5 38.78971862792969 166.7897186279297 43.5 161 43.5 Z" stroke="none"/>
    <path d="M 11 1 C 5.485977172851562 1 1 5.485977172851562 1 11 L 1 33 C 1 38.51402282714844 5.485977172851562 43 11 43 L 161 43 C 166.5140228271484 43 171 38.51402282714844 171 33 L 171 11 C 171 5.485977172851562 166.5140228271484 1 161 1 L 11 1 M 11 0 L 161 0 C 167.0751342773438 0 172 4.924869537353516 172 11 L 172 33 C 172 39.07513046264648 167.0751342773438 44 161 44 L 11 44 C 4.92486572265625 44 0 39.07513046264648 0 33 L 0 11 C 0 4.924869537353516 4.92486572265625 0 11 0 Z" stroke="none" fill="#707070"/>
  </g>
  <text id="REJECTED" transform="translate(43 28)" fill="#ff3434" font-size="18" font-family="Lato, 'sans-serif'" font-weight="500"><tspan x="0" y="0">REJECTED</tspan></text>
</svg>
