<svg id="delivery" xmlns="http://www.w3.org/2000/svg" width="73.053" height="51.197" viewBox="0 0 73.053 51.197">
  <g id="Group_29" data-name="Group 29" transform="translate(0 0)">
    <path id="Path_27" data-name="Path 27" d="M70.573,89.821,65.6,87.669l-4.224-8.22a6.652,6.652,0,0,0-5.986-3.637H48.115V73.756A6.71,6.71,0,0,0,41.428,67H6.655A6.693,6.693,0,0,0,0,73.756v31.478a4.1,4.1,0,0,0,4.045,4.159h.93c0,.163-.016.228-.016.326a8.449,8.449,0,0,0,16.9.065V109.7a2.537,2.537,0,0,0-.016-.326h28.1v.326a8.449,8.449,0,1,0,16.9.065v-.408h2.1a4.114,4.114,0,0,0,4.11-4.11V93.605A4.09,4.09,0,0,0,70.573,89.821Zm-57.15,25.133a5.187,5.187,0,1,1,5.187-5.187A5.179,5.179,0,0,1,13.424,114.955Zm31.429-8.791H21.073a8.438,8.438,0,0,0-15.3,0H4.111a.845.845,0,0,1-.848-.9v-8.4h41.59Zm0-32.391V93.605H3.263V73.773a3.432,3.432,0,0,1,3.392-3.49H41.428a3.456,3.456,0,0,1,3.425,3.474Zm3.262,5.317h7.274a3.442,3.442,0,0,1,3.1,1.843l3.262,6.312H48.115Zm10.292,35.865a5.187,5.187,0,1,1,5.187-5.187A5.179,5.179,0,0,1,58.406,114.955Zm11.4-9.688a.845.845,0,0,1-.848.9h-2.9a8.442,8.442,0,0,0-15.3,0H48.115V90.506H64.1l5.187,2.283a.96.96,0,0,1,.522.881Z" transform="translate(0 -67.004)"/>
  </g>
</svg>
