<svg id="icons8-calendar" xmlns="http://www.w3.org/2000/svg" width="37.743" height="38.736" viewBox="0 0 37.743 38.736">
  <path id="Path_28" data-name="Path 28" d="M5,37.838V14H42.743V37.838a3.985,3.985,0,0,1-3.973,3.973H8.973A3.985,3.985,0,0,1,5,37.838Z" transform="translate(-5 -3.074)" fill="#cfd8dc"/>
  <path id="Path_29" data-name="Path 29" d="M42.743,9.973v5.959H5V9.973A3.985,3.985,0,0,1,8.973,6h29.8A3.985,3.985,0,0,1,42.743,9.973Z" transform="translate(-5 -3.02)" fill="#fe640f"/>
  <path id="Path_30" data-name="Path 30" d="M32.858,7a2.98,2.98,0,1,0,2.98,2.98A2.98,2.98,0,0,0,32.858,7ZM14.98,7a2.98,2.98,0,1,0,2.98,2.98A2.98,2.98,0,0,0,14.98,7Z" transform="translate(-5.047 -3.027)" fill="#b71c1c"/>
  <path id="Path_31" data-name="Path 31" d="M32.865,3a1.992,1.992,0,0,0-1.986,1.986V9.953a1.986,1.986,0,0,0,3.973,0V4.986A1.992,1.992,0,0,0,32.865,3ZM14.986,3A1.992,1.992,0,0,0,13,4.986V9.953a1.986,1.986,0,0,0,3.973,0V4.986A1.992,1.992,0,0,0,14.986,3Z" transform="translate(-5.054 -3)" fill="#b0bec5"/>
  <g id="Group_35" data-name="Group 35" transform="translate(7.946 16.885)">
    <path id="Path_32" data-name="Path 32" d="M13,20h3.973v3.973H13Zm5.959,0h3.973v3.973H18.959Zm5.959,0h3.973v3.973H24.919Zm5.959,0h3.973v3.973H30.878ZM13,25.959h3.973v3.973H13Zm5.959,0h3.973v3.973H18.959Zm5.959,0h3.973v3.973H24.919Zm5.959,0h3.973v3.973H30.878ZM13,31.919h3.973v3.973H13Zm5.959,0h3.973v3.973H18.959Zm5.959,0h3.973v3.973H24.919Zm5.959,0h3.973v3.973H30.878Z" transform="translate(-13 -20)" fill="#90a4ae"/>
  </g>
</svg>
