<svg xmlns="http://www.w3.org/2000/svg" width="24.383" height="24.889" viewBox="0 0 24.383 24.889">
  <g id="Group_16" data-name="Group 16" transform="translate(-529.25 -183.102)">
    <path id="icons8-future" d="M23.033,5.98V2.145a1.59,1.59,0,1,0-3.18,0v.868a12.166,12.166,0,1,0,3.18,2.967ZM13.252,24.359a11.132,11.132,0,1,1,7.661-19.2V2.145a.53.53,0,1,1,1.06,0V7.011H17.107a.53.53,0,1,1,0-1.06h3.1a10.066,10.066,0,1,0,3.116,7.276,10.409,10.409,0,0,0-1.1-4.63l.948-.474a11.453,11.453,0,0,1,1.213,5.1A11.144,11.144,0,0,1,13.252,24.359Zm1.06-11.107a1.06,1.06,0,0,1-.039.271l3.595,3.595-.75.75-3.595-3.595a1.055,1.055,0,0,1-.8-1.934V4.771h1.06v7.568A1.054,1.054,0,0,1,14.312,13.252Z" transform="translate(528.189 182.547)" fill="#fe640f"/>
  </g>
</svg>
