<svg xmlns="http://www.w3.org/2000/svg" xmlns:xlink="http://www.w3.org/1999/xlink" width="104.099" height="65" viewBox="0 0 104.099 65">
  <defs>
    <filter id="Path_61" x="0" y="0" width="104.099" height="65" filterUnits="userSpaceOnUse">
      <feOffset dy="3" input="SourceAlpha"/>
      <feGaussianBlur stdDeviation="3" result="blur"/>
      <feFlood flood-opacity="0.161"/>
      <feComposite operator="in" in2="blur"/>
      <feComposite in="SourceGraphic"/>
    </filter>
  </defs>
  <g id="Group_54" data-name="Group 54" transform="translate(-1155.109 -514)">
    <g transform="matrix(1, 0, 0, 1, 1155.11, 514)" filter="url(#Path_61)">
      <path id="Path_61-2" data-name="Path 61" d="M9.567,0H76.533C81.816,0,86.1,2.239,86.1,5V42c0,2.761-4.283,5-9.567,5H9.567C4.283,47,0,44.761,0,42V5C0,2.239,4.283,0,9.567,0Z" transform="translate(9 6)" fill="#feede3"/>
    </g>
    <path id="Icon_material-filter-list" data-name="Icon material-filter-list" d="M12.89,23.382h4.794v-2.4H12.89ZM4.5,9v2.4H26.073V9Zm3.6,8.39H22.478v-2.4H8.1Z" transform="translate(1168.422 527.809)" fill="#fe640f"/>
    <text id="Filter" transform="translate(1204.208 549)" fill="#fe640f" font-size="16" font-family="Lato, 'sans-serif'"><tspan x="0" y="0">Filter</tspan></text>
  </g>
</svg>
