<svg id="icons8-marker" xmlns="http://www.w3.org/2000/svg" width="21.03" height="28.541" viewBox="0 0 21.03 28.541">
  <path id="Path_43" data-name="Path 43" d="M43.279,23.14c0,6.009-10.14,17.65-10.14,17.65S23,29.148,23,23.14a10.14,10.14,0,1,1,20.279,0Z" transform="translate(-22.624 -12.624)" fill="#fe640f"/>
  <path id="Path_44" data-name="Path 44" d="M32.515,40.541a.376.376,0,0,1-.283-.129C31.814,39.933,22,28.594,22,22.515a10.515,10.515,0,0,1,21.03,0c0,6.079-9.814,17.418-10.232,17.9A.376.376,0,0,1,32.515,40.541Zm0-27.79a9.775,9.775,0,0,0-9.764,9.764c0,5.243,8.13,15.137,9.764,17.072,1.634-1.934,9.764-11.828,9.764-17.072A9.775,9.775,0,0,0,32.515,12.751Z" transform="translate(-22 -12)" fill="#ead6c7"/>
  <path id="Path_45" data-name="Path 45" d="M40.321,24.5a5.821,5.821,0,1,0,5.821,5.821A5.821,5.821,0,0,0,40.321,24.5Z" transform="translate(-29.806 -19.806)" fill="#fefdef"/>
  <path id="Path_46" data-name="Path 46" d="M32.515,40.541a.376.376,0,0,1-.283-.129C31.814,39.933,22,28.594,22,22.515a10.515,10.515,0,0,1,21.03,0c0,6.079-9.814,17.418-10.232,17.9A.376.376,0,0,1,32.515,40.541Zm0-27.79a9.775,9.775,0,0,0-9.764,9.764c0,5.243,8.13,15.137,9.764,17.072,1.634-1.934,9.764-11.828,9.764-17.072A9.775,9.775,0,0,0,32.515,12.751Z" transform="translate(-22 -12)" fill="#1f212b"/>
  <path id="Path_47" data-name="Path 47" d="M40.009,36.017a6.009,6.009,0,1,1,6.009-6.009A6.016,6.016,0,0,1,40.009,36.017Zm0-11.642a5.633,5.633,0,1,0,5.633,5.633A5.64,5.64,0,0,0,40.009,24.376Z" transform="translate(-29.494 -19.494)" fill="#1f212b"/>
  <path id="Path_48" data-name="Path 48" d="M40.009,36.017a6.009,6.009,0,1,1,6.009-6.009A6.016,6.016,0,0,1,40.009,36.017Zm0-11.642a5.633,5.633,0,1,0,5.633,5.633A5.64,5.64,0,0,0,40.009,24.376Z" transform="translate(-29.494 -19.494)" fill="#1f212b"/>
  <path id="Path_49" data-name="Path 49" d="M36.886,34.773a7.886,7.886,0,0,1,0-15.773,7.762,7.762,0,0,1,3.655.9.188.188,0,1,1-.175.332,7.385,7.385,0,0,0-3.48-.861,7.511,7.511,0,1,0,7.5,7.694.176.176,0,0,1,.192-.183.188.188,0,0,1,.183.192A7.836,7.836,0,0,1,36.886,34.773Zm6.09-12.393a.187.187,0,0,1-.149-.073,7.579,7.579,0,0,0-1.494-1.466.188.188,0,0,1,.223-.3,7.947,7.947,0,0,1,1.568,1.539.188.188,0,0,1-.034.264A.192.192,0,0,1,42.976,22.38Zm1.207,2.253a.188.188,0,0,1-.178-.128,7.52,7.52,0,0,0-.469-1.1.188.188,0,1,1,.333-.175,7.933,7.933,0,0,1,.493,1.154.188.188,0,0,1-.178.248Z" transform="translate(-26.371 -16.371)" fill="#1f212b"/>
</svg>
