<svg id="Icon_ionic-ios-notifications-outline" data-name="Icon ionic-ios-notifications-outline" xmlns="http://www.w3.org/2000/svg" width="17.515" height="21.922" viewBox="0 0 17.515 21.922">
  <path id="Path_65" data-name="Path 65" d="M19.118,28.336a.71.71,0,0,0-.7.559,1.373,1.373,0,0,1-.274.6,1.036,1.036,0,0,1-.882.323,1.053,1.053,0,0,1-.882-.323,1.373,1.373,0,0,1-.274-.6.71.71,0,0,0-.7-.559h0a.714.714,0,0,0-.7.871,2.448,2.448,0,0,0,2.548,2.033,2.444,2.444,0,0,0,2.548-2.033.717.717,0,0,0-.7-.871Z" transform="translate(-8.524 -9.318)" fill="#ff7f34"/>
  <path id="Path_66" data-name="Path 66" d="M24.07,20.165c-.844-1.112-2.5-1.764-2.5-6.745,0-5.112-2.257-7.167-4.361-7.66-.2-.049-.34-.115-.34-.323V5.278A1.344,1.344,0,0,0,15.55,3.93h-.033A1.344,1.344,0,0,0,14.2,5.278v.159c0,.2-.142.274-.34.323-2.11.5-4.361,2.548-4.361,7.66,0,4.981-1.66,5.627-2.5,6.745a1.088,1.088,0,0,0,.871,1.742H23.215A1.088,1.088,0,0,0,24.07,20.165Zm-2.137.318H9.155a.24.24,0,0,1-.181-.4,6.638,6.638,0,0,0,1.151-1.83,12.417,12.417,0,0,0,.784-4.833,8.4,8.4,0,0,1,1.145-4.756,3.516,3.516,0,0,1,2.12-1.512,1.92,1.92,0,0,0,1.019-.575.433.433,0,0,1,.652-.011,1.985,1.985,0,0,0,1.03.586A3.516,3.516,0,0,1,19,8.665a8.4,8.4,0,0,1,1.145,4.756,12.417,12.417,0,0,0,.784,4.833A6.714,6.714,0,0,0,22.1,20.111.227.227,0,0,1,21.933,20.483Z" transform="translate(-6.775 -3.93)" fill="#ff7f34"/>
</svg>
