<svg xmlns="http://www.w3.org/2000/svg" width="21.1" height="21.107" viewBox="0 0 21.1 21.107">
  <path id="Icon_ionic-ios-settings" data-name="Icon ionic-ios-settings" d="M22.78,14.462a2.564,2.564,0,0,1,1.645-2.392,10.163,10.163,0,0,0-1.23-2.963,2.6,2.6,0,0,1-1.043.223,2.558,2.558,0,0,1-2.34-3.6A10.132,10.132,0,0,0,16.854,4.5a2.562,2.562,0,0,1-4.784,0A10.163,10.163,0,0,0,9.107,5.73a2.558,2.558,0,0,1-2.34,3.6,2.514,2.514,0,0,1-1.043-.223A10.387,10.387,0,0,0,4.5,12.075a2.563,2.563,0,0,1,.005,4.784,10.163,10.163,0,0,0,1.23,2.963A2.559,2.559,0,0,1,9.113,23.2a10.222,10.222,0,0,0,2.963,1.23,2.557,2.557,0,0,1,4.774,0,10.163,10.163,0,0,0,2.963-1.23,2.562,2.562,0,0,1,3.378-3.378,10.222,10.222,0,0,0,1.23-2.963A2.576,2.576,0,0,1,22.78,14.462Zm-8.271,4.146a4.151,4.151,0,1,1,4.151-4.151A4.15,4.15,0,0,1,14.509,18.608Z" transform="translate(-3.912 -3.911)" fill="#fe640f" stroke="#212121" stroke-width="1"/>
</svg>
