<svg id="Component_4_1" data-name="Component 4 – 1" xmlns="http://www.w3.org/2000/svg" width="130" height="83" viewBox="0 0 116 83">
  <rect id="Rectangle_4" data-name="Rectangle 4" width="130" height="83" rx="10" fill="#feede3"/>
  <g id="Group_10" data-name="Group 10" transform="translate(-480.904 -167.23)">
    <text
        id="Today_Tasks"
        data-name="Today Tasks"
        transform="translate(496.904 231.23)"
        fill="#fe640f"
        font-size="16"
        font-family="Lato, sans-serif"
        font-weight="500">
        <tspan x="0" y="0">Today Tasks</tspan>
    </text>
    <path id="Icon_material-today" data-name="Icon material-today" d="M26.174,4.209H24.82V1.5H22.11V4.209H11.273V1.5H8.564V4.209H7.209a2.7,2.7,0,0,0-2.7,2.709L4.5,25.884a2.709,2.709,0,0,0,2.709,2.709H26.174a2.717,2.717,0,0,0,2.709-2.709V6.919A2.717,2.717,0,0,0,26.174,4.209Zm0,21.674H7.209v-14.9H26.174ZM9.919,13.692h6.773v6.773H9.919Z" transform="translate(524.75 180.5)" fill="#fe640f"/>
  </g>
</svg>
